<svg xmlns="http://www.w3.org/2000/svg" width="24" height="24" viewBox="0 0 24 24" fill="none" stroke="currentColor" stroke-width="2" stroke-linecap="round" stroke-linejoin="round" class="lucide lucide-building-2">
  <path d="M6 22V2a1 1 0 0 1 1-1h10a1 1 0 0 1 1 1v20" />
  <path d="M2 22h20" />
  <path d="M6 13H4a1 1 0 0 0-1 1v2a1 1 0 0 0 1 1h2" />
  <path d="M18 13h2a1 1 0 0 1 1 1v2a1 1 0 0 1-1 1h-2" />
  <path d="M10 7H8a1 1 0 0 0-1 1v8h4V8a1 1 0 0 0-1-1Z" />
  <path d="M16 7h-2a1 1 0 0 0-1 1v8h4V8a1 1 0 0 0-1-1Z" />
</svg> 